<?xml version="1.0" encoding="UTF-8"?>
<svg id="Layer_1" data-name="Layer 1" xmlns="http://www.w3.org/2000/svg" width="1080" height="1080" xmlns:xlink="http://www.w3.org/1999/xlink" viewBox="0 0 1080 1080">
  <defs>
    <style>
      .cls-1 {
        stroke: #1b1464;
        stroke-width: 1.59px;
      }

      .cls-1, .cls-2 {
        stroke-miterlimit: 10;
      }

      .cls-1, .cls-3 {
        fill: #1b1464;
      }

      .cls-2 {
        fill: #fff;
        filter: url(#drop-shadow-1);
        stroke: #000;
        stroke-width: 1.96px;
      }

      .cls-3, .cls-4, .cls-5 {
        stroke-width: 0px;
      }

      .cls-4 {
        fill: #1c2360;
      }

      .cls-5 {
        fill: #0071bb;
      }
    </style>
    <filter id="drop-shadow-1" filterUnits="userSpaceOnUse">
      <feOffset dx="30.17" dy="30.17"/>
      <feGaussianBlur result="blur" stdDeviation="0"/>
      <feFlood flood-color="#000" flood-opacity=".12"/>
      <feComposite in2="blur" operator="in"/>
      <feComposite in="SourceGraphic"/>
    </filter>
  </defs>
  <rect class="cls-2" x="162.37" y="260.85" width="752" height="538.56" rx="6.13" ry="6.13"/>
  <g>
    <path class="cls-5" d="m712.93,519.63c0,1.15.71,2.87,2.15,5.17l76.69,113.75c1.14,1.44,1.72,3.16,1.72,5.17,0,3.74-2.59,5.6-7.76,5.6h-35.76c-4.6,0-8.19-2.01-10.77-6.03l-78.85-119.78c-2.58-4.02-6.18-6.03-10.77-6.03h-66.78c-2.87,0-5.1.79-6.68,2.37-1.58,1.58-2.37,3.81-2.37,6.68v113.75c0,2.87-.79,5.1-2.37,6.68-1.58,1.58-3.81,2.37-6.68,2.37h-28.87c-2.87,0-5.1-.79-6.68-2.37-1.58-1.58-2.37-3.8-2.37-6.68v-297.73c0-2.87.79-5.1,2.37-6.68,1.58-1.58,3.8-2.37,6.68-2.37h151.66c29.3,0,53.28,7.4,71.95,22.19,18.67,14.8,28.01,37.99,28.01,69.58,0,24.99-6.11,44.59-18.31,58.81-12.21,14.22-28.65,23.91-49.33,29.08-4.6,1.44-6.89,3.6-6.89,6.46Zm-130.12-144.77c-2.87,0-5.1.79-6.68,2.37-1.58,1.58-2.37,3.81-2.37,6.68v82.73c0,2.87.79,5.1,2.37,6.68,1.58,1.58,3.8,2.37,6.68,2.37h77.99c16.08,0,29.51-.86,40.29-2.59,10.77-1.72,19.96-6.31,27.57-13.79,7.61-7.47,11.42-18.81,11.42-34.04s-3.81-26.57-11.42-34.04c-7.61-7.47-16.8-12.06-27.57-13.79-10.77-1.72-24.2-2.59-40.29-2.59h-77.99Z"/>
    <path class="cls-3" d="m512.28,626.96c-22.26,18.82-53.79,28.22-94.57,28.22-25.57,0-47.83-5.17-66.78-15.51-18.96-10.34-34.33-23.62-46.1-39.86-11.78-16.22-20.11-33.82-24.99-52.78-.29-.57-.43-1.58-.43-3.02,0-3.73,2.15-6.46,6.46-8.19l28.01-10.77c1.72-.57,3.02-.86,3.88-.86,3.45,0,5.88,2.3,7.32,6.89,6.89,25.57,18.96,45.39,36.19,59.46,17.23,14.08,36.19,21.11,56.87,21.11,28.72,0,49.69-7.47,62.91-22.41,13.21-14.93,20.53-36.91,21.97-65.92.28-5.74.43-26.28.43-61.61l-.43-118.92c0-6.03,3.02-9.05,9.05-9.05h29.3c6.03,0,9.05,3.02,9.05,9.05l.43,98.24c0,39.93-.72,73.54-2.15,100.82-2.01,37.92-14.15,66.29-36.41,85.1Z"/>
    <rect class="cls-1" x="279.23" y="334.17" width="271.06" height="46.28" rx="7.81" ry="7.81"/>
    <g>
      <path class="cls-4" d="m277.75,686.77h12.56c11.65,0,19.32,7.49,19.32,16.49s-7.67,16.49-19.32,16.49h-12.56v-32.97Zm11.86,29.72c9.82,0,15.83-6.03,15.83-13.24s-6.01-13.24-15.83-13.24h-7.73v26.47h7.73Z"/>
      <path class="cls-4" d="m327.55,686.77h4.51l15.13,32.97h-4.35l-3.81-8.67h-18.46l-3.81,8.67h-4.35l15.13-32.97Zm10.04,21.01l-7.78-17.57-7.78,17.57h15.56Z"/>
      <path class="cls-4" d="m359.53,690.07h-12.72v-3.3h29.62v3.3h-12.72v29.68h-4.19v-29.68Z"/>
      <path class="cls-4" d="m391.19,686.77h4.51l15.13,32.97h-4.35l-3.81-8.67h-18.46l-3.81,8.67h-4.35l15.13-32.97Zm10.04,21.01l-7.78-17.57-7.78,17.57h15.56Z"/>
      <path class="cls-4" d="m427.52,710.09h4.08c1.13,4.24,4.72,7.3,11,7.3s9.66-3.01,9.66-7.02c0-3.16-2.36-5.18-6.87-5.98l-8.26-1.51c-5.58-1.04-8.43-3.58-8.43-7.91,0-5.23,5.37-8.86,13.36-8.86s12.4,3.67,13.36,9.47h-4.08c-.91-3.81-4.08-6.45-9.39-6.45s-9.18,2.12-9.18,5.75c0,2.73,1.4,4.24,5.63,4.99l8.26,1.46c6.23,1.08,9.66,4.15,9.66,8.9,0,6.03-5.9,10.18-13.79,10.18-8.43,0-13.63-4.15-15.03-10.32Z"/>
      <path class="cls-4" d="m464.27,686.77h25.98v3.3h-21.79v11.07h21.04v3.3h-21.04v12.01h22.22v3.3h-26.4v-32.97Z"/>
      <path class="cls-4" d="m498.51,686.77h16.58c7.57,0,12.61,4.19,12.61,9.37,0,4.76-4.13,8.53-10.36,9.33l8.59,14.27h-4.51l-8.48-14.13h-10.25v14.13h-4.19v-32.97Zm16.15,15.64c5.53,0,8.86-2.78,8.86-6.27s-3.33-6.17-8.86-6.17h-11.97v12.44h11.97Z"/>
      <path class="cls-4" d="m531.51,686.77h4.13l12.4,28.83,12.4-28.83h4.13l-14.38,32.97h-4.29l-14.38-32.97Z"/>
      <path class="cls-4" d="m570.63,686.77h4.19v32.97h-4.19v-32.97Z"/>
      <path class="cls-4" d="m582.76,703.26c0-8.76,6.71-17.15,17.76-17.15,8.16,0,13.68,4.05,15.67,9.89h-4.29c-1.82-3.86-5.31-6.59-11.38-6.59-8.8,0-13.58,6.97-13.58,13.85s4.78,13.85,13.58,13.85c6.06,0,9.55-2.73,11.38-6.59h4.29c-1.99,5.84-7.51,9.89-15.67,9.89-11.06,0-17.76-8.39-17.76-17.15Z"/>
      <path class="cls-4" d="m624.08,686.77h25.97v3.3h-21.79v11.07h21.04v3.3h-21.04v12.01h22.22v3.3h-26.4v-32.97Z"/>
      <path class="cls-4" d="m656.43,710.09h4.08c1.13,4.24,4.72,7.3,11,7.3s9.66-3.01,9.66-7.02c0-3.16-2.36-5.18-6.87-5.98l-8.26-1.51c-5.58-1.04-8.43-3.58-8.43-7.91,0-5.23,5.37-8.86,13.36-8.86s12.4,3.67,13.36,9.47h-4.08c-.91-3.81-4.08-6.45-9.39-6.45s-9.18,2.12-9.18,5.75c0,2.73,1.4,4.24,5.64,4.99l8.26,1.46c6.23,1.08,9.66,4.15,9.66,8.9,0,6.03-5.9,10.18-13.79,10.18-8.43,0-13.63-4.15-15.03-10.32Z"/>
      <path class="cls-5" d="m705.16,686.77h2.68v30.9h21.04v2.07h-23.72v-32.97Z"/>
      <path class="cls-5" d="m741.7,688.84h-12.93v-2.07h28.6v2.07h-12.99v30.9h-2.68v-30.9Z"/>
      <path class="cls-5" d="m764.51,686.77h10.84c12.4,0,19.91,7.54,19.91,16.49s-7.51,16.49-19.91,16.49h-10.84v-32.97Zm10.3,30.9c11.48,0,17.76-6.69,17.76-14.41s-6.28-14.41-17.76-14.41h-7.67v28.83h7.67Z"/>
    </g>
  </g>
</svg>